<svg width="14" height="14" viewBox="0 0 14 14" fill="none" xmlns="http://www.w3.org/2000/svg">
<path d="M13.6963 6.07853C13.9719 5.80997 14.0692 5.41582 13.9503 5.04942C13.8312 4.68302 13.5208 4.42147 13.1396 4.36596L9.74976 3.87341C9.60539 3.85238 9.48064 3.76183 9.41616 3.63092L7.90066 0.559551C7.7305 0.214457 7.38512 0 7.00022 0C6.6156 0 6.27023 0.214457 6.10006 0.559551L4.58428 3.6312C4.51981 3.76211 4.39478 3.85266 4.2504 3.87369L0.860575 4.36624C0.479597 4.42147 0.168985 4.6833 0.0498417 5.0497C-0.0690209 5.4161 0.0282558 5.81025 0.303826 6.07881L2.75649 8.46952C2.86106 8.57157 2.90899 8.71846 2.88432 8.86199L2.30571 12.2378C2.25441 12.535 2.33234 12.824 2.52465 13.0519C2.82349 13.4071 3.3452 13.5153 3.76234 13.2961L6.79389 11.7021C6.92061 11.6356 7.08012 11.6362 7.20655 11.7021L10.2384 13.2961C10.3858 13.3737 10.5431 13.413 10.7054 13.413C11.0017 13.413 11.2826 13.2812 11.4758 13.0519C11.6684 12.824 11.746 12.5344 11.6947 12.2378L11.1158 8.86199C11.0912 8.71818 11.1391 8.57157 11.2437 8.46952L13.6963 6.07853Z" fill="#E6E6E6"/>
</svg>
